<svg width="512" height="512" viewBox="0 0 512 512" xmlns="http://www.w3.org/2000/svg">
  <!-- Background circle -->
  <circle cx="256" cy="256" r="256" fill="#F59E0B"/>
  
  <!-- Brain (top) -->
  <g transform="translate(256, 120)">
    <path d="M-30,-20 Q-40,-40 -20,-50 Q0,-60 20,-50 Q40,-40 30,-20 Q35,0 25,15 Q15,25 0,25 Q-15,25 -25,15 Q-35,0 -30,-20 Z" 
          fill="white" opacity="0.95"/>
    <circle cx="-15" cy="-10" r="3" fill="#F59E0B"/>
    <circle cx="15" cy="-10" r="3" fill="#F59E0B"/>
    <path d="M-10,0 Q0,5 10,0" stroke="#F59E0B" stroke-width="2" fill="none"/>
  </g>
  
  <!-- Circuit board (center) -->
  <g transform="translate(180, 260)">
    <rect x="0" y="0" width="80" height="60" rx="8" fill="white" opacity="0.95"/>
    <line x1="20" y1="15" x2="60" y2="15" stroke="#F59E0B" stroke-width="3"/>
    <line x1="20" y1="30" x2="60" y2="30" stroke="#F59E0B" stroke-width="3"/>
    <line x1="20" y1="45" x2="60" y2="45" stroke="#F59E0B" stroke-width="3"/>
    <circle cx="15" cy="15" r="4" fill="#F59E0B"/>
    <circle cx="15" cy="30" r="4" fill="#F59E0B"/>
    <circle cx="15" cy="45" r="4" fill="#F59E0B"/>
    <circle cx="65" cy="15" r="4" fill="#F59E0B"/>
    <circle cx="65" cy="30" r="4" fill="#F59E0B"/>
    <circle cx="65" cy="45" r="4" fill="#F59E0B"/>
  </g>
  
  <!-- Wrench (main tool) -->
  <g transform="translate(280, 280)">
    <path d="M0,0 L60,60 L50,70 L-10,10 Z" fill="white" opacity="0.95"/>
    <path d="M60,60 L70,70 L75,65 L65,55 Z" fill="white" opacity="0.95"/>
    <rect x="-15" y="-15" width="20" height="20" rx="3" fill="white" opacity="0.95"/>
  </g>
  
  <!-- AI Badge -->
  <g transform="translate(310, 320)">
    <rect x="0" y="0" width="50" height="30" rx="5" fill="white" opacity="0.95"/>
    <text x="25" y="21" font-family="Arial, sans-serif" font-size="18" font-weight="bold" 
          text-anchor="middle" fill="#F59E0B">AI</text>
  </g>
  
  <!-- Circuit connections -->
  <line x1="256" y1="145" x2="220" y2="260" stroke="white" stroke-width="2" opacity="0.6"/>
  <line x1="260" y1="320" x2="280" y2="280" stroke="white" stroke-width="2" opacity="0.6"/>
  <circle cx="220" cy="260" r="4" fill="white" opacity="0.8"/>
  <circle cx="280" cy="280" r="4" fill="white" opacity="0.8"/>
</svg>
